# xmcd
#
# Track frame offsets:
#	150
#	17622
#	36884
#	49769
#	61597
#	76648
#	92009
#	106725
#	125143
#	138100
#
# Disc length: 2084 seconds
#
# Revision: 1
# Processed by: cddbd v1.5.1PL0 Copyright (c) Steve Scherf et al.
# Submitted via: audiograbber 1.83.01
#
DISCID=6f08220a
DTITLE=Andy Chase - Aces, Eights and Angels
DYEAR=1996
DGENRE=Country
TTITLE0=Full Moon Comin
TTITLE1=7 Dollars Worth of Rain
TTITLE2=Just the Same
TTITLE3=Big Son of A Gun
TTITLE4=Portales Alice
TTITLE5=What'Cha Got (the Tear Drop Song)
TTITLE6=Broken By The BEst
TTITLE7=You Should Go To Nashville
TTITLE8=So Unwise
TTITLE9=Angel with A Tamborine
EXTD=
EXTT0=
EXTT1=
EXTT2=
EXTT3=
EXTT4=
EXTT5=
EXTT6=
EXTT7=
EXTT8=
EXTT9=
PLAYORDER=
